<svg width="126" height="126" viewBox="0 0 126 126" fill="none" xmlns="http://www.w3.org/2000/svg">
<path d="M101.982 76.3314L101.983 76.3314L103.657 76.3314C104.083 76.3314 104.492 76.5007 104.793 76.8022C105.095 77.1036 105.264 77.5125 105.264 77.9388V79.6129V79.6134C105.26 83.8272 103.584 87.8669 100.604 90.8465C97.6245 93.826 93.5847 95.502 89.371 95.5067H89.3704H89.3037V101.887C94.631 102.161 99.798 103.819 104.293 106.702C104.472 106.815 104.626 106.962 104.748 107.134C104.871 107.308 104.958 107.504 105.004 107.711L104.516 107.82L105.004 107.711C105.051 107.919 105.055 108.133 105.018 108.343C104.981 108.552 104.903 108.751 104.788 108.93C104.673 109.109 104.524 109.263 104.349 109.384C104.174 109.505 103.977 109.59 103.77 109.634C103.562 109.678 103.347 109.681 103.138 109.641C102.931 109.602 102.733 109.523 102.556 109.407C98.1196 106.568 92.9631 105.059 87.6963 105.059C82.4287 105.059 77.2713 106.568 72.8349 109.408L101.982 76.3314ZM101.982 76.3314C98.8083 76.3352 95.708 77.288 93.0796 79.0674C90.7678 80.6324 88.914 82.774 87.6963 85.2713M101.982 76.3314L87.6963 85.2713M87.6963 85.2713C86.4786 82.774 84.6248 80.6324 82.313 79.0674C79.6846 77.288 76.5843 76.3352 73.4103 76.3314H73.4097H71.7358C71.3095 76.3314 70.9006 76.5007 70.5992 76.8022C70.2977 77.1036 70.1284 77.5125 70.1284 77.9388V79.6129V79.6134C70.1331 83.8271 71.8091 87.8669 74.7886 90.8465C77.7681 93.826 81.8079 95.502 86.0216 95.5067H86.0222H86.0889V101.887C80.7608 102.161 75.593 103.819 71.0979 106.703C69.4294 107.772 67.4896 108.34 65.5083 108.34C63.5269 108.34 61.5871 107.772 59.9187 106.703C55.4235 103.819 50.2559 102.161 44.928 101.888V95.5067H44.9946H44.9951C49.2089 95.502 53.2487 93.826 56.2283 90.8465C59.2079 87.867 60.8839 83.8272 60.8887 79.6134V79.6129V77.9388C60.8887 77.5125 60.7193 77.1036 60.4179 76.8022V76.8022C60.1164 76.5007 59.7075 76.3314 59.2812 76.3314L57.6071 76.3314L57.6065 76.3314C54.4326 76.3352 51.3322 77.288 48.7039 79.0673C46.3921 80.6323 44.5383 82.7738 43.3206 85.2712C42.1029 82.7738 40.2491 80.6323 37.9373 79.0673C35.309 77.288 32.2086 76.3352 29.0347 76.3314H29.0341H27.3601C26.9338 76.3314 26.5249 76.5007 26.2235 76.8022C25.922 77.1036 25.7527 77.5125 25.7527 77.9388L25.7527 79.6129L25.7527 79.6134C25.7574 83.8272 27.4334 87.8669 30.413 90.8465C33.3925 93.826 37.4323 95.502 41.646 95.5067H41.6466H41.7132V101.888C36.3853 102.161 31.2178 103.819 26.7226 106.703L26.7224 106.703C26.3637 106.933 26.1112 107.297 26.0205 107.713C25.9298 108.13 26.0083 108.566 26.2387 108.924L26.2387 108.924C26.4691 109.283 26.8326 109.535 27.2492 109.626C27.6654 109.717 28.1007 109.638 28.4593 109.408L87.6963 85.2713ZM43.3205 105.059C38.0532 105.059 32.8962 106.568 28.4599 109.408L43.3205 105.059ZM43.3205 105.059C48.588 105.059 53.7452 106.568 58.1817 109.408M43.3205 105.059L58.1817 109.408M58.1817 109.408C60.3685 110.809 62.9111 111.554 65.5082 111.554M58.1817 109.408L65.5082 111.554M65.5082 111.554C68.1053 111.554 70.6479 110.809 72.8347 109.408L65.5082 111.554ZM57.6077 79.5462L57.6738 79.5462V79.6123C57.67 82.974 56.3329 86.1969 53.9558 88.574C51.5787 90.951 48.3557 92.2881 44.994 92.2919H44.928V92.226C44.9318 88.8643 46.2689 85.6414 48.646 83.2643C51.023 80.8872 54.2459 79.5501 57.6075 79.5462C57.6076 79.5462 57.6076 79.5462 57.6077 79.5462ZM28.9675 79.6123L28.9675 79.5462L29.0335 79.5462C29.0336 79.5462 29.0336 79.5462 29.0337 79.5462C32.3953 79.5501 35.6182 80.8872 37.9952 83.2643C40.3723 85.6414 41.7094 88.8643 41.7132 92.226V92.2919H41.6472C38.2855 92.2881 35.0626 90.951 32.6855 88.5739C30.3085 86.1969 28.9714 82.9741 28.9675 79.6125C28.9675 79.6124 28.9675 79.6124 28.9675 79.6123ZM73.3431 79.6123V79.5462L73.409 79.5462C73.4091 79.5462 73.4092 79.5462 73.4092 79.5462C76.7709 79.5501 79.9937 80.8872 82.3708 83.2643C84.7479 85.6414 86.085 88.8643 86.0888 92.226V92.2919H86.0227C82.661 92.2881 79.4381 90.951 77.0611 88.5739C74.6841 86.1969 73.3469 82.974 73.3431 79.6123ZM102.049 79.6123C102.046 82.974 100.708 86.1969 98.3314 88.574C95.9543 90.951 92.7315 92.2881 89.3698 92.2919H89.3037V92.226C89.3076 88.8643 90.6447 85.6414 93.0218 83.2643C95.3988 80.8872 98.6217 79.5501 101.983 79.5462C101.983 79.5462 101.983 79.5462 101.984 79.5462L102.049 79.5462L102.049 79.6123Z" fill="#285A43" stroke="#285A43"/>
<path d="M36.9237 61.3196L19.9967 44.3927L19.9967 44.3927C19.4577 43.8536 19.0461 43.2008 18.7921 42.4821C18.5381 41.7633 18.4481 40.9969 18.5286 40.2388C18.6092 39.4808 18.8584 38.7504 19.2578 38.1012C19.6572 37.4519 20.1969 36.9002 20.8372 36.4865L21.1085 36.9065L20.8372 36.4865L26.8058 32.6302L25.5925 31.4169L25.5921 31.4165C23.9755 29.7962 23.0677 27.6008 23.0677 25.312C23.0677 23.0232 23.9755 20.8278 25.5921 19.2075L25.5925 19.2071L27.8248 16.975C28.6265 16.1733 29.5783 15.5373 30.6258 15.1034C31.6733 14.6696 32.796 14.4462 33.9298 14.4462C35.0636 14.4462 36.1863 14.6696 37.2338 15.1034C38.2813 15.5373 39.233 16.1733 40.0347 16.975L39.6812 17.3286L40.0348 16.975L45.255 22.1955L45.2564 22.1967L45.2712 22.2115L59.1453 36.0858C59.4052 36.3457 59.5682 36.6869 59.607 37.0525C59.6459 37.4181 59.5582 37.7859 59.3587 38.0947L56.49 42.5348L65.9434 43.7122L69.5502 41.4361L69.817 41.8589L69.5502 41.436C69.7933 41.2826 70.0732 41.1972 70.3606 41.1887C70.648 41.1803 70.9324 41.249 71.1842 41.3879C71.4359 41.5267 71.6459 41.7305 71.7921 41.9781C71.9383 42.2257 72.0154 42.5079 72.0154 42.7954V52.7459C72.0154 53.0334 71.9383 53.3157 71.7921 53.5633C71.6459 53.8108 71.436 54.0147 71.1842 54.1535L70.9427 53.7157L71.1842 54.1535C70.9324 54.2923 70.648 54.3611 70.3606 54.3526C70.0732 54.3442 69.7933 54.2588 69.5502 54.1053L69.5501 54.1053L65.9434 51.829L49.1323 53.9227L44.8705 60.5188L36.9237 61.3196ZM36.9237 61.3196L36.9633 61.3594C37.4364 61.8345 37.9987 62.2114 38.6179 62.4685C39.2371 62.7255 39.901 62.8577 40.5714 62.8573C40.754 62.8572 40.9363 62.8474 41.1178 62.8281C41.1179 62.828 41.1181 62.828 41.1182 62.828L41.0651 62.3308C41.7493 62.2596 42.4087 62.0354 42.9946 61.675L36.9237 61.3196ZM66.1167 46.9734L66.1178 46.9736C66.4858 47.0186 66.8582 46.9355 67.1721 46.7382L67.173 46.7377L68.8005 45.7106V49.8306L67.173 48.8035L67.1725 48.8031C66.8584 48.6054 66.4857 48.5223 66.1173 48.5676L66.1167 48.5677L51.4086 50.3995L54.5527 45.5332L66.1167 46.9734ZM21.7254 40.5797L21.7256 40.5776C21.7549 40.2966 21.8469 40.0258 21.995 39.7851C22.143 39.5445 22.3432 39.3402 22.5808 39.1874L22.5817 39.1868L43.9162 25.4029L55.9538 37.4407L42.1697 58.7749L42.1697 58.7749C42.0162 59.0124 41.8116 59.2126 41.5708 59.3608C41.3299 59.509 41.059 59.6014 40.7778 59.6313C40.4966 59.6612 40.2123 59.6278 39.9457 59.5335C39.6791 59.4393 39.437 59.2866 39.2371 59.0866L39.237 59.0866L22.27 42.1196L22.2693 42.1189C22.0691 41.9195 21.9162 41.6777 21.8221 41.4112C21.7279 41.1448 21.6949 40.8606 21.7254 40.5797ZM27.8662 29.1444C26.8514 28.1272 26.2814 26.749 26.2814 25.3121C26.2814 23.8752 26.8514 22.497 27.8662 21.4798L30.098 19.2482C31.1143 18.232 32.4926 17.6612 33.9297 17.6612C35.3668 17.6612 36.7451 18.232 37.7613 19.2482C37.7614 19.2482 37.7614 19.2482 37.7614 19.2482L41.591 23.0778L29.5677 30.8459L27.8662 29.1444Z" fill="#285A43" stroke="#285A43"/>
<path d="M91.0947 59.7227L91.0947 59.7227L86.9585 56.0335L87.2753 55.6467C87.2751 55.6465 87.2748 55.6463 87.2746 55.6461C87.1115 55.5127 86.9237 55.4126 86.7219 55.3516C86.5198 55.2905 86.3077 55.2698 86.0976 55.2907C85.8876 55.3116 85.6837 55.3737 85.4976 55.4734C85.3115 55.5731 85.1469 55.7084 85.0132 55.8717C84.743 56.2015 84.615 56.6252 84.6572 57.0494C84.6994 57.4736 84.9083 57.8637 85.2382 58.1339L85.2398 58.1352C86.466 59.1309 87.5517 60.2882 88.4673 61.5754C88.7129 61.9233 89.0865 62.1596 89.5061 62.2323C89.9262 62.3051 90.3579 62.2081 90.7064 61.9626C91.0549 61.717 91.2916 61.3431 91.3645 60.923C91.4373 60.503 91.3402 60.0712 91.0947 59.7227Z" fill="#285A43" stroke="#285A43"/>
<path d="M91.3921 70.3842L91.3921 70.3842C91.3226 68.8071 91.0424 67.2463 90.5589 65.7434L91.0349 65.5903L90.5597 65.7459C90.494 65.5453 90.4685 65.3337 90.4846 65.1232C90.5007 64.9128 90.5581 64.7075 90.6535 64.5192C90.749 64.3309 90.8806 64.1633 91.0408 64.0258C91.201 63.8885 91.3867 63.784 91.5873 63.7184L91.3921 70.3842ZM91.3921 70.3842L91.3922 70.3866M91.3921 70.3842L91.3922 70.3866M91.3922 70.3866C91.4124 70.7986 91.5901 71.1872 91.8887 71.4718C92.1873 71.7565 92.5839 71.9154 92.9964 71.9158H92.9969M91.3922 70.3866L92.9969 71.9158M92.9969 71.9158C93.0239 71.9158 93.0491 71.9151 93.0712 71.9142L93.0712 71.9142M92.9969 71.9158L93.0712 71.9142M93.0712 71.9142L93.0761 71.914M93.0712 71.9142L93.0761 71.914M93.0761 71.914C93.5019 71.8932 93.902 71.7041 94.1884 71.3884C94.4744 71.0732 94.6237 70.6574 94.6036 70.2323C94.5204 68.3683 94.1881 66.5239 93.6155 64.7481L93.6155 64.7481M93.0761 71.914L93.6155 64.7481M93.6155 64.7481L93.6149 64.7461M93.6155 64.7481L93.6149 64.7461M93.6149 64.7461C93.5493 64.5455 93.4448 64.3597 93.3074 64.1995C93.1699 64.0392 93.0023 63.9076 92.814 63.8122L92.5938 64.2466M93.6149 64.7461L92.5938 64.2466M92.5938 64.2466L92.814 63.8122C92.6257 63.7167 92.4205 63.6593 92.21 63.6432M92.5938 64.2466L92.21 63.6432M92.21 63.6432C91.9995 63.6271 91.788 63.6526 91.5874 63.7183L92.21 63.6432Z" fill="#285A43" stroke="#285A43"/>
<path d="M81.1913 55.5328L81.1913 55.5328L81.1945 55.5344C81.3833 55.629 81.5888 55.6854 81.7993 55.7006C82.0099 55.7157 82.2213 55.6892 82.4217 55.6226C82.622 55.556 82.8072 55.4506 82.9668 55.3124C83.1264 55.1742 83.2572 55.006 83.3517 54.8172C83.4463 54.6285 83.5027 54.423 83.5178 54.2124C83.533 54.0019 83.5065 53.7904 83.4399 53.5901L82.9654 53.7479L83.4399 53.5901C83.3733 53.3898 83.2679 53.2046 83.1297 53.045C82.992 52.886 82.8245 52.7556 82.6366 52.6611C80.98 51.8136 79.232 51.1582 77.4266 50.7076L77.4179 50.7054L77.4091 50.7035C76.9939 50.6156 76.5607 50.6955 76.2041 50.9257C75.8476 51.156 75.5965 51.518 75.5058 51.9326C75.4151 52.3473 75.4922 52.781 75.7201 53.1391C75.9466 53.495 76.3038 53.7475 76.7147 53.8423C78.2647 54.239 79.766 54.806 81.1913 55.5328Z" fill="#285A43" stroke="#285A43"/>
<path d="M96.8236 51.8645L96.8235 51.8645L96.8289 51.8684C98.1281 52.8099 99.319 53.8925 100.38 55.0962C100.662 55.4162 101.059 55.6112 101.484 55.6383C101.91 55.6654 102.329 55.5224 102.649 55.2407C102.969 54.959 103.164 54.5617 103.191 54.1362C103.218 53.7107 103.075 53.2919 102.793 52.9719L102.793 52.9717C101.575 51.5897 100.208 50.3468 98.7159 49.2658L98.7159 49.2658L98.7108 49.2622C98.3654 49.0185 97.9379 48.9206 97.5209 48.9898C97.1039 49.059 96.731 49.2897 96.4828 49.6319C96.2346 49.9741 96.1313 50.4002 96.195 50.8181C96.2588 51.236 96.4846 51.6119 96.8236 51.8645Z" fill="#285A43" stroke="#285A43"/>
<path d="M88.0277 47.8698L88.0277 47.8697C87.616 47.7645 87.2626 47.5006 87.045 47.1356C86.8274 46.7706 86.7632 46.3343 86.8664 45.922C86.9695 45.5098 87.2318 45.1552 87.5957 44.9358C87.9596 44.7164 88.3956 44.65 88.8083 44.7512L88.8097 44.7515L88.8097 44.7515C90.5755 45.1897 92.2992 45.7831 93.9605 46.5247L88.0277 47.8698ZM88.0277 47.8698L88.0311 47.8706M88.0277 47.8698L88.0311 47.8706M88.0311 47.8706C89.6125 48.2628 91.1561 48.7939 92.6441 49.4576M88.0311 47.8706L92.6441 49.4576M92.6441 49.4576C92.8363 49.5445 93.0437 49.5926 93.2546 49.5993C93.466 49.606 93.6766 49.571 93.8744 49.4962C94.0722 49.4214 94.2532 49.3083 94.4073 49.1633C94.5613 49.0184 94.6852 48.8445 94.7719 48.6516C94.8585 48.4588 94.9063 48.2507 94.9124 48.0393C94.9186 47.8279 94.8829 47.6174 94.8076 47.4198C94.7322 47.2222 94.6186 47.0414 94.4732 46.8878C94.3279 46.7343 94.1537 46.6109 93.9606 46.5248L92.6441 49.4576Z" fill="#285A43" stroke="#285A43"/>
<path d="M105.957 57.4674L105.957 57.4674L105.956 57.4661C105.853 57.2816 105.715 57.1193 105.55 56.9882C105.384 56.8571 105.195 56.7599 104.992 56.7021C104.789 56.6443 104.576 56.6271 104.366 56.6514C104.157 56.6757 103.954 56.7411 103.769 56.8438C103.585 56.9465 103.423 57.0845 103.292 57.25C103.16 57.4154 103.063 57.6051 103.005 57.8081C102.948 58.0111 102.93 58.2236 102.955 58.4333C102.979 58.6429 103.044 58.8458 103.147 59.0302L103.584 58.7869L103.146 59.0287C103.931 60.449 104.583 61.9387 105.094 63.4788L105.094 63.4801C105.229 63.8844 105.52 64.2184 105.901 64.4086C106.283 64.5988 106.724 64.6297 107.128 64.4944C107.533 64.3592 107.867 64.0689 108.057 63.6873C108.247 63.3062 108.278 62.8652 108.143 62.4612C107.57 60.7329 106.838 59.0612 105.957 57.4674Z" fill="#285A43" stroke="#285A43"/>
<path d="M83.178 47.0528L83.1776 47.0527C82.1917 46.9625 81.2083 46.9169 80.2553 46.9169C79.6514 46.9169 79.1674 46.9357 78.8349 46.9545C78.5076 46.973 78.327 46.9914 78.322 46.9919C78.322 46.9919 78.322 46.9919 78.3219 46.9919C77.9002 47.0328 77.4795 46.9054 77.1512 46.6377C76.8228 46.3699 76.6135 45.9832 76.5687 45.5619C76.5239 45.1405 76.6473 44.7186 76.912 44.3877C77.1768 44.0569 77.5614 43.8439 77.9823 43.7952L77.9875 43.7946L77.9875 43.7947C78.0354 43.7896 78.8763 43.702 80.2554 43.702C81.3069 43.702 82.3884 43.7523 83.4705 43.8512L83.178 47.0528ZM83.178 47.0528C83.2284 47.0573 83.2775 47.0594 83.3254 47.0594L83.3258 47.0594C83.7393 47.0591 84.1368 46.8994 84.4357 46.6135C84.7345 46.3276 84.9116 45.9375 84.9303 45.5244C84.9489 45.1113 84.8076 44.7069 84.5357 44.3952C84.2639 44.0836 83.8824 43.8888 83.4706 43.8512L83.4251 44.3491C83.7088 44.375 83.9717 44.5092 84.159 44.7239C84.3463 44.9386 84.4436 45.2172 84.4308 45.5019C84.418 45.7865 84.2959 46.0552 84.09 46.2522C83.8841 46.4491 83.6103 46.5592 83.3254 46.5594C83.2917 46.5594 83.2577 46.558 83.2232 46.5548L83.178 47.0528Z" fill="#285A43" stroke="#285A43"/>
</svg>
