<svg width="126" height="126" viewBox="0 0 126 126" fill="none" xmlns="http://www.w3.org/2000/svg">
<path d="M79.4377 80.6368V80.6361C79.4377 80.2098 79.2683 79.8009 78.9669 79.4995C78.6654 79.198 78.2566 79.0287 77.8303 79.0287L77.8296 79.0287C74.5284 79.0328 71.3047 80.0295 68.5772 81.8892C66.1715 83.5295 64.2499 85.7744 63 88.3889C61.75 85.7744 59.8285 83.5295 57.4228 81.8892C54.6953 80.0295 51.4716 79.0328 48.1703 79.0287H48.1697C47.7434 79.0287 47.3346 79.198 47.0331 79.4995C46.7316 79.8009 46.5623 80.2098 46.5623 80.6361L46.5623 80.6368C46.5677 84.7964 48.1483 88.7997 50.986 91.8412C53.7175 94.7688 57.4187 96.596 61.3926 96.9903V104.815C56.46 105.087 51.6787 106.631 47.516 109.301L47.5157 109.301C47.157 109.531 46.9045 109.895 46.8138 110.311C46.7231 110.728 46.8016 111.163 47.032 111.522C47.2624 111.881 47.6259 112.133 48.0425 112.224C48.4588 112.315 48.894 112.236 49.2526 112.006C53.3565 109.379 58.1272 107.983 63 107.983C67.8728 107.983 72.6435 109.379 76.7474 112.006C76.9249 112.12 77.123 112.198 77.3304 112.235C77.5382 112.273 77.7513 112.269 77.9575 112.224C78.1638 112.179 78.3592 112.094 78.5326 111.973C78.7059 111.853 78.8539 111.7 78.968 111.522C79.0821 111.344 79.16 111.146 79.1975 110.938C79.2349 110.731 79.2311 110.518 79.1862 110.311C79.1413 110.105 79.0562 109.91 78.9357 109.736C78.8153 109.563 78.6619 109.415 78.4843 109.301L78.484 109.301C74.3213 106.631 69.54 105.087 64.6074 104.815V96.9903C68.5813 96.596 72.2825 94.7688 75.014 91.8412C77.8517 88.7997 79.4323 84.7964 79.4377 80.6368ZM78.6133 79.853C78.4057 79.6454 78.124 79.5287 77.8303 79.5287L78.9377 80.6361C78.9377 80.3424 78.821 80.0607 78.6133 79.853ZM68.4851 86.1212C70.5479 84.0584 73.2295 82.7383 76.1102 82.3562C75.7281 85.2369 74.408 87.9185 72.3452 89.9813C70.2824 92.0441 67.6008 93.3642 64.7201 93.7463C65.1022 90.8656 66.4223 88.184 68.4851 86.1212ZM53.6548 89.9813C51.592 87.9185 50.2719 85.2369 49.8898 82.3562C52.7705 82.7383 55.4521 84.0584 57.5149 86.1212C59.5777 88.184 60.8978 90.8656 61.2799 93.7463C58.3992 93.3642 55.7176 92.0441 53.6548 89.9813Z" fill="white" stroke="white"/>
<path d="M62.9994 59.1998H63C66.3326 59.1998 69.5904 58.2116 72.3614 56.36C75.1323 54.5085 77.292 51.8769 78.5673 48.798C79.8427 45.719 80.1763 42.3311 79.5262 39.0625C78.876 35.7939 77.2712 32.7915 74.9147 30.435C72.5582 28.0785 69.5558 26.4737 66.2872 25.8235C63.0186 25.1734 59.6307 25.5071 56.5517 26.7824C53.4728 28.0577 50.8412 30.2174 48.9897 32.9884C47.1382 35.7594 46.1499 39.0171 46.1499 42.3497L46.1499 42.3503C46.155 46.8175 47.9318 51.1003 51.0906 54.2591C54.2494 57.4179 58.5322 59.1948 62.9994 59.1998ZM63.0004 28.7147C65.697 28.7148 68.3331 29.5145 70.5753 31.0127C72.8176 32.511 74.5652 34.6405 75.5972 37.132C76.6292 39.6235 76.8992 42.3651 76.3731 45.0101C75.847 47.655 74.5483 50.0846 72.6414 51.9915C70.7345 53.8984 68.3049 55.197 65.66 55.7231C63.015 56.2492 60.2734 55.9792 57.7819 54.9472C55.2904 53.9151 53.1609 52.1675 51.6627 49.9252C50.1645 47.683 49.3648 45.0469 49.3647 42.3502C49.3689 38.7351 50.8068 35.2693 53.3631 32.713C55.9194 30.1568 59.3853 28.7189 63.0004 28.7147Z" fill="white" stroke="white"/>
<path d="M76.3063 57.9294L76.3063 57.9294L78.8378 60.4608C78.8378 60.4608 78.8378 60.4608 78.8378 60.4608C78.9871 60.6101 79.1643 60.7285 79.3593 60.8092C79.5543 60.89 79.7634 60.9316 79.9745 60.9316C80.1856 60.9316 80.3946 60.89 80.5896 60.8092C80.7847 60.7285 80.9619 60.61 81.1111 60.4608C81.2604 60.3115 81.3788 60.1343 81.4596 59.9393C81.5404 59.7442 81.5819 59.5352 81.5819 59.3241C81.5819 59.113 81.5404 58.904 81.4596 58.709C81.3788 58.5139 81.2604 58.3367 81.1111 58.1875L81.1111 58.1875L78.5796 55.6561C78.5796 55.6561 78.5796 55.6561 78.5796 55.6561C78.4304 55.5069 78.2532 55.3885 78.0581 55.3077C77.8631 55.2269 77.6541 55.1853 77.443 55.1853C77.2319 55.1853 77.0229 55.2269 76.8278 55.3077C76.6328 55.3884 76.4556 55.5068 76.3063 55.6561C76.1571 55.8054 76.0387 55.9826 75.9579 56.1776C75.8771 56.3726 75.8355 56.5817 75.8355 56.7928C75.8355 57.0039 75.8771 57.2129 75.9579 57.4079C76.0386 57.603 76.1571 57.7802 76.3063 57.9294Z" fill="white" stroke="white"/>
<path d="M49.6937 26.7701L49.6937 26.77L47.1622 24.2386C47.1622 24.2386 47.1622 24.2386 47.1622 24.2386C46.8607 23.9372 46.4519 23.7678 46.0255 23.7678C45.5992 23.7678 45.1903 23.9372 44.8889 24.2386C44.5874 24.5401 44.4181 24.949 44.4181 25.3753C44.4181 25.8016 44.5874 26.2105 44.8889 26.512L44.8889 26.512L47.4204 29.0433C47.4204 29.0433 47.4204 29.0434 47.4204 29.0434C47.5696 29.1926 47.7468 29.311 47.9419 29.3918C48.1369 29.4726 48.3459 29.5142 48.557 29.5142C48.7681 29.5142 48.9771 29.4726 49.1722 29.3918C49.3672 29.311 49.5444 29.1926 49.6937 29.0434C49.8429 28.8941 49.9613 28.7169 50.0421 28.5219C50.1229 28.3268 50.1645 28.1178 50.1645 27.9067C50.1645 27.6956 50.1229 27.4866 50.0421 27.2916C49.9614 27.0965 49.8429 26.9193 49.6937 26.7701Z" fill="white" stroke="white"/>
<path d="M78.8378 24.2386L78.8378 24.2386L76.3063 26.7701L76.3063 26.7701C76.0049 27.0716 75.8355 27.4805 75.8355 27.9068C75.8355 28.3331 76.0049 28.742 76.3063 29.0434C76.6078 29.3449 77.0167 29.5142 77.443 29.5142C77.8693 29.5142 78.2782 29.3449 78.5796 29.0434C78.5796 29.0434 78.5796 29.0434 78.5796 29.0434L81.1111 26.512C81.4126 26.2105 81.5819 25.8016 81.5819 25.3753C81.5819 24.949 81.4126 24.5401 81.1111 24.2386C80.8097 23.9372 80.4008 23.7678 79.9745 23.7678C79.5482 23.7678 79.1393 23.9372 78.8378 24.2386Z" fill="white" stroke="white"/>
<path d="M49.6937 57.9294C49.8429 57.7802 49.9614 57.603 50.0421 57.4079C50.1229 57.2129 50.1645 57.0039 50.1645 56.7928C50.1645 56.5817 50.1229 56.3727 50.0421 56.1776C49.9614 55.9826 49.8429 55.8054 49.6937 55.6561L49.6936 55.6561C49.3921 55.3547 48.9833 55.1854 48.557 55.1854C48.1307 55.1854 47.7219 55.3547 47.4204 55.6561L47.4204 55.6561L44.8889 58.1875L44.8889 58.1875C44.5874 58.4889 44.4181 58.8978 44.4181 59.3241C44.4181 59.7505 44.5874 60.1593 44.8889 60.4608C45.1903 60.7623 45.5992 60.9316 46.0255 60.9316C46.4519 60.9316 46.8607 60.7623 47.1622 60.4608M49.6937 57.9294L49.3401 57.5759L49.6937 57.9294L49.6937 57.9294ZM49.6937 57.9294L47.1622 60.4608M47.1622 60.4608L46.8104 60.109L47.1622 60.4608L47.1622 60.4608Z" fill="white" stroke="white"/>
<path d="M90.0032 40.7423H83.4255C82.9992 40.7423 82.5904 40.9117 82.2889 41.2131C81.9875 41.5146 81.8181 41.9234 81.8181 42.3497C81.8181 42.776 81.9875 43.1849 82.2889 43.4864C82.5904 43.7878 82.9992 43.9572 83.4255 43.9572H90.0032C90.4295 43.9572 90.8383 43.7878 91.1398 43.4864C91.4412 43.1849 91.6106 42.776 91.6106 42.3497C91.6106 41.9234 91.4412 41.5146 91.1398 41.2131C90.8383 40.9117 90.4295 40.7423 90.0032 40.7423Z" fill="white" stroke="white"/>
<path d="M42.5745 40.7423H35.9968C35.5705 40.7423 35.1617 40.9117 34.8602 41.2131C34.5588 41.5146 34.3894 41.9234 34.3894 42.3497C34.3894 42.776 34.5588 43.1849 34.8602 43.4864C35.1617 43.7878 35.5705 43.9572 35.9968 43.9572H42.5745C43.0008 43.9572 43.4096 43.7878 43.7111 43.4864C44.0125 43.1849 44.1819 42.776 44.1819 42.3497C44.1819 41.9234 44.0125 41.5146 43.7111 41.2131C43.4096 40.9117 43.0008 40.7423 42.5745 40.7423Z" fill="white" stroke="white"/>
<path d="M61.3926 62.7753V69.3529C61.3926 69.7792 61.5619 70.188 61.8634 70.4895L61.8634 70.4895C62.1648 70.7909 62.5737 70.9603 63 70.9603C63.4263 70.9603 63.8352 70.7909 64.1366 70.4895C64.4381 70.188 64.6074 69.7792 64.6074 69.3529V62.7753C64.6074 62.349 64.4381 61.9401 64.1366 61.6387C63.8352 61.3372 63.4263 61.1678 63 61.1678C62.5737 61.1678 62.1648 61.3372 61.8634 61.6387C61.5619 61.9401 61.3926 62.349 61.3926 62.7753Z" fill="white" stroke="white"/>
<path d="M63 23.5315C63.4263 23.5315 63.8352 23.3622 64.1366 23.0607C64.4381 22.7593 64.6074 22.3504 64.6074 21.9241V15.3464C64.6074 14.9201 64.4381 14.5113 64.1366 14.2098C63.8352 13.9084 63.4263 13.739 63 13.739C62.5737 13.739 62.1648 13.9084 61.8634 14.2098C61.5619 14.5113 61.3926 14.9201 61.3926 15.3464V21.924C61.3926 21.924 61.3926 21.924 61.3926 21.924C61.3926 22.1351 61.4341 22.3441 61.5149 22.5392C61.5957 22.7342 61.7141 22.9114 61.8633 23.0607C62.0126 23.21 62.1898 23.3284 62.3848 23.4092C62.5799 23.49 62.7889 23.5315 63 23.5315Z" fill="white" stroke="white"/>
</svg>
