<svg width="236" height="213" viewBox="0 0 236 213" fill="none" xmlns="http://www.w3.org/2000/svg">
<mask id="path-1-inside-1_1_957" fill="white">
<path d="M197.355 53.076C204.277 53.0359 211.065 51.1651 217.03 47.6536C221.533 45.1043 225.466 41.6585 228.586 37.5292C231.705 33.3999 233.944 28.6747 235.166 23.6458C235.416 22.5358 235.237 21.3722 234.664 20.3891C234.091 19.406 233.167 18.6763 232.078 18.347C227.101 16.9299 221.886 16.5486 216.755 17.2267C211.625 17.9048 206.688 19.6278 202.25 22.2894C198.346 24.5581 194.854 27.4714 191.923 30.9058C191.066 26.4728 189.464 22.2169 187.187 18.3187C184.637 13.8149 181.192 9.88174 177.062 6.76231C172.933 3.64287 168.208 1.40343 163.179 0.182359C162.069 -0.0680916 160.905 0.111145 159.922 0.684006C158.939 1.25687 158.209 2.18083 157.88 3.26995C156.463 8.24733 156.082 13.4624 156.76 18.5929C157.438 23.7234 159.161 28.6603 161.823 33.0986C166.222 40.7865 173.138 46.7213 181.405 49.9014C179.943 57.8296 177.683 71.7789 175.807 90.7054C174.189 87.7573 172.275 84.9817 170.095 82.4214C161.554 72.3945 149.603 66.3325 137.305 65.789C136.168 65.7395 135.055 66.122 134.189 66.8597C133.323 67.5974 132.768 68.6356 132.636 69.7655C131.216 81.994 135.3 94.7573 143.84 104.784C151.339 113.768 161.938 119.608 173.538 121.149C173.004 131.604 172.657 143.162 172.638 155.644C170.92 153.14 168.976 150.799 166.831 148.65C157.518 139.337 145.127 134.257 132.818 134.687C131.681 134.728 130.601 135.198 129.797 136.003C128.992 136.807 128.522 137.887 128.482 139.024C128.042 151.326 133.131 163.723 142.444 173.037C150.619 181.378 161.622 186.353 173.284 186.98C173.658 195.706 174.218 204.725 174.964 214.036H61.0358C61.7968 204.736 62.3568 195.717 62.7158 186.98C74.3777 186.352 85.3809 181.377 93.5558 173.037C102.869 163.723 107.959 151.326 107.519 139.024C107.478 137.887 107.008 136.807 106.204 136.003C105.399 135.198 104.319 134.728 103.182 134.687C90.881 134.256 78.483 139.337 69.1695 148.65C67.024 150.799 65.0802 153.14 63.3626 155.644C63.3434 143.162 62.9963 131.604 62.4618 121.149C74.0623 119.609 84.6614 113.768 92.16 104.784C100.701 94.7576 104.784 81.994 103.364 69.7659C103.233 68.6354 102.679 67.5965 101.813 66.8586C100.946 66.1207 99.8325 65.7386 98.6956 65.7894C86.3978 66.3328 74.4456 72.3948 65.9056 82.4217C63.7254 84.982 61.8115 87.7576 60.1934 90.7057C58.3176 71.7792 56.0576 57.8299 54.5956 49.9017C62.8624 46.7216 69.7789 40.7868 74.1775 33.0989C76.839 28.6605 78.562 23.7235 79.2401 18.593C79.9182 13.4624 79.537 8.24734 78.12 3.26995C77.7909 2.18066 77.0613 1.25651 76.0781 0.683564C75.095 0.110616 73.9312 -0.0685826 72.8212 0.182053C67.7922 1.40312 63.067 3.64257 58.9377 6.76201C54.8083 9.88144 51.3626 13.8146 48.8134 18.3184C46.5355 22.2166 44.9341 26.4725 44.0771 30.9055C41.1458 27.4711 37.6543 24.5578 33.7504 22.2891C29.3121 19.6276 24.3752 17.9047 19.2447 17.2266C14.1142 16.5485 8.89917 16.9297 3.92183 18.3467C2.83272 18.676 1.90879 19.4057 1.33597 20.3888C0.763142 21.3719 0.583937 22.5355 0.834425 23.6455C2.05542 28.6745 4.29477 33.3997 7.41408 37.529C10.5334 41.6584 14.4664 45.1042 18.97 47.6536C24.9348 51.1653 31.7227 53.0361 38.6443 53.076C41.0753 53.0739 43.4996 52.8223 45.8791 52.325C47.2812 60.0589 49.3783 73.1691 51.1305 90.5189C49.2395 88.1966 47.1422 86.0503 44.8641 84.1062C34.8372 75.5662 22.0774 71.4832 9.84553 72.9022C8.71523 73.0333 7.67657 73.5877 6.93872 74.454C6.20086 75.3202 5.81861 76.4338 5.86892 77.5706C6.41292 89.869 12.4754 101.82 22.5018 110.361C30.8942 117.642 41.5974 121.71 52.7073 121.841C52.9665 121.841 53.2253 121.824 53.4844 121.819C54.0158 132.277 54.3566 143.855 54.363 156.368C52.5269 153.59 50.4155 151.005 48.0608 148.65C38.7483 139.337 26.3562 134.257 14.0481 134.688C12.911 134.728 11.8315 135.198 11.0269 136.003C10.2223 136.807 9.75237 137.887 9.71173 139.024C9.27173 151.325 14.3611 163.723 23.6746 173.037C31.6587 181.175 42.338 186.12 53.7087 186.944C53.3305 195.677 52.7619 204.708 52.0027 214.036H26.5151C25.3834 214.036 24.2932 214.462 23.4618 215.23C22.6304 215.998 22.119 217.051 22.0293 218.179L19.8242 245.912C17.1794 278.565 27.1627 310.988 47.7163 336.497L60.3677 352.247C60.7895 352.772 61.3236 353.195 61.9308 353.486C62.538 353.777 63.2027 353.928 63.876 353.928H172.124C172.797 353.928 173.462 353.777 174.069 353.486C174.676 353.195 175.211 352.772 175.632 352.247L188.284 336.497C208.837 310.988 218.821 278.565 216.176 245.912L213.971 218.18C213.881 217.052 213.37 215.999 212.538 215.231C211.707 214.463 210.617 214.036 209.485 214.036H183.996C183.226 204.744 182.656 195.713 182.288 186.944C193.66 186.121 204.34 181.176 212.325 173.037C221.639 163.723 226.728 151.326 226.288 139.025C226.247 137.888 225.778 136.808 224.973 136.003C224.168 135.199 223.089 134.729 221.952 134.688C209.651 134.257 197.252 139.338 187.939 148.651C185.585 151.004 183.475 153.588 181.639 156.365C181.651 144.031 181.993 132.477 182.543 121.821C182.793 121.825 183.042 121.842 183.292 121.842C194.402 121.71 205.105 117.642 213.498 110.361C223.524 101.821 229.586 89.8695 230.13 77.5712C230.181 76.4344 229.798 75.3208 229.061 74.4546C228.323 73.5883 227.284 73.0339 226.154 72.9028C213.926 71.4819 201.162 75.5668 191.135 84.1069C188.878 86.0336 186.798 88.159 184.92 90.4576C186.672 73.0987 188.744 60.0356 190.13 52.3276C192.507 52.8234 194.928 53.0742 197.355 53.076ZM75.5337 155.014C81.6386 148.775 89.7042 144.826 98.3765 143.83C97.2879 152.475 93.3527 160.512 87.1915 166.673C81.0303 172.834 72.9936 176.769 64.3486 177.857C65.3454 169.185 69.2947 161.12 75.5337 155.014ZM72.7568 88.2576C78.345 81.5512 86.0697 76.971 94.6348 75.2855C94.2394 83.9897 90.958 92.3147 85.3081 98.9478C79.6582 105.581 71.9612 110.145 63.4307 111.92C63.7318 103.196 67.0248 94.8411 72.7568 88.2576ZM56.59 22.85C59.7444 17.3139 64.597 12.9403 70.43 10.3764C71.0125 16.7117 69.604 23.0709 66.4007 28.5676C63.1975 34.0644 58.3591 38.4249 52.56 41.0414C51.9152 34.7021 53.3282 28.3237 56.59 22.85ZM23.5017 39.8774C17.9658 36.7226 13.5924 31.8696 11.0285 26.0365C17.3638 25.4541 23.7229 26.8627 29.2196 30.0659C34.7163 33.2692 39.0767 38.1074 41.6931 43.9065C35.3539 44.5526 28.9753 43.1399 23.5017 39.8774ZM28.3381 103.509C21.6317 97.9212 17.0514 90.1964 15.3659 81.6313C24.0702 82.0266 32.3953 85.3079 39.0285 90.9578C45.6617 96.6077 50.2257 104.305 52.0007 112.835C43.2765 112.534 34.9217 109.241 28.3381 103.509ZM30.0393 166.673C23.8002 160.568 19.8509 152.502 18.854 143.83C27.499 144.918 35.5357 148.853 41.6969 155.015C47.8581 161.176 51.7932 169.212 52.8818 177.857C44.2097 176.861 36.1444 172.912 30.0393 166.673ZM181.267 330.861L169.967 344.929H66.0332L54.7332 330.861C36.5203 308.255 27.2061 279.768 28.5464 250.769H207.454C208.794 279.768 199.48 308.255 181.267 330.861ZM206.818 241.769H29.182L30.6714 223.036H56.13H56.1409H56.1461H179.854H179.859H179.87H205.329L206.818 241.769ZM196.972 90.9579C203.555 85.2255 211.91 81.9324 220.635 81.6313C218.86 90.1618 214.296 97.8589 207.663 103.509C201.029 109.159 192.704 112.44 184 112.835C185.685 104.27 190.266 96.5458 196.972 90.9579ZM206.781 30.0658C212.255 26.8042 218.633 25.3916 224.972 26.037C222.356 31.8361 217.995 36.6744 212.498 39.8775C207.002 43.0806 200.643 44.4889 194.307 43.9062C196.871 38.0731 201.245 33.2204 206.781 30.0658ZM169.599 28.5678C166.338 23.0939 164.925 16.7154 165.57 10.3763C171.369 12.9927 176.207 17.3532 179.411 22.85C182.614 28.3468 184.023 34.7059 183.44 41.0413C177.607 38.4776 172.754 34.104 169.599 28.5678ZM150.692 98.9478C144.96 92.3642 141.667 84.0093 141.365 75.2852C149.896 77.06 157.593 81.6239 163.243 88.2571C168.893 94.8904 172.174 103.216 172.569 111.92C164.004 110.234 156.28 105.654 150.692 98.9478ZM148.809 166.672C142.57 160.567 138.621 152.502 137.624 143.83C146.268 144.918 154.305 148.854 160.466 155.015C166.628 161.176 170.563 169.212 171.651 177.857C162.979 176.861 154.914 172.911 148.809 166.672ZM194.303 155.014C200.408 148.775 208.474 144.826 217.146 143.83C216.057 152.475 212.122 160.512 205.961 166.673C199.8 172.834 191.763 176.769 183.118 177.857C184.115 169.185 188.064 161.119 194.303 155.014Z"/>
</mask>
<path d="M197.355 53.076C204.277 53.0359 211.065 51.1651 217.03 47.6536C221.533 45.1043 225.466 41.6585 228.586 37.5292C231.705 33.3999 233.944 28.6747 235.166 23.6458C235.416 22.5358 235.237 21.3722 234.664 20.3891C234.091 19.406 233.167 18.6763 232.078 18.347C227.101 16.9299 221.886 16.5486 216.755 17.2267C211.625 17.9048 206.688 19.6278 202.25 22.2894C198.346 24.5581 194.854 27.4714 191.923 30.9058C191.066 26.4728 189.464 22.2169 187.187 18.3187C184.637 13.8149 181.192 9.88174 177.062 6.76231C172.933 3.64287 168.208 1.40343 163.179 0.182359C162.069 -0.0680916 160.905 0.111145 159.922 0.684006C158.939 1.25687 158.209 2.18083 157.88 3.26995C156.463 8.24733 156.082 13.4624 156.76 18.5929C157.438 23.7234 159.161 28.6603 161.823 33.0986C166.222 40.7865 173.138 46.7213 181.405 49.9014C179.943 57.8296 177.683 71.7789 175.807 90.7054C174.189 87.7573 172.275 84.9817 170.095 82.4214C161.554 72.3945 149.603 66.3325 137.305 65.789C136.168 65.7395 135.055 66.122 134.189 66.8597C133.323 67.5974 132.768 68.6356 132.636 69.7655C131.216 81.994 135.3 94.7573 143.84 104.784C151.339 113.768 161.938 119.608 173.538 121.149C173.004 131.604 172.657 143.162 172.638 155.644C170.92 153.14 168.976 150.799 166.831 148.65C157.518 139.337 145.127 134.257 132.818 134.687C131.681 134.728 130.601 135.198 129.797 136.003C128.992 136.807 128.522 137.887 128.482 139.024C128.042 151.326 133.131 163.723 142.444 173.037C150.619 181.378 161.622 186.353 173.284 186.98C173.658 195.706 174.218 204.725 174.964 214.036H61.0358C61.7968 204.736 62.3568 195.717 62.7158 186.98C74.3777 186.352 85.3809 181.377 93.5558 173.037C102.869 163.723 107.959 151.326 107.519 139.024C107.478 137.887 107.008 136.807 106.204 136.003C105.399 135.198 104.319 134.728 103.182 134.687C90.881 134.256 78.483 139.337 69.1695 148.65C67.024 150.799 65.0802 153.14 63.3626 155.644C63.3434 143.162 62.9963 131.604 62.4618 121.149C74.0623 119.609 84.6614 113.768 92.16 104.784C100.701 94.7576 104.784 81.994 103.364 69.7659C103.233 68.6354 102.679 67.5965 101.813 66.8586C100.946 66.1207 99.8325 65.7386 98.6956 65.7894C86.3978 66.3328 74.4456 72.3948 65.9056 82.4217C63.7254 84.982 61.8115 87.7576 60.1934 90.7057C58.3176 71.7792 56.0576 57.8299 54.5956 49.9017C62.8624 46.7216 69.7789 40.7868 74.1775 33.0989C76.839 28.6605 78.562 23.7235 79.2401 18.593C79.9182 13.4624 79.537 8.24734 78.12 3.26995C77.7909 2.18066 77.0613 1.25651 76.0781 0.683564C75.095 0.110616 73.9312 -0.0685826 72.8212 0.182053C67.7922 1.40312 63.067 3.64257 58.9377 6.76201C54.8083 9.88144 51.3626 13.8146 48.8134 18.3184C46.5355 22.2166 44.9341 26.4725 44.0771 30.9055C41.1458 27.4711 37.6543 24.5578 33.7504 22.2891C29.3121 19.6276 24.3752 17.9047 19.2447 17.2266C14.1142 16.5485 8.89917 16.9297 3.92183 18.3467C2.83272 18.676 1.90879 19.4057 1.33597 20.3888C0.763142 21.3719 0.583937 22.5355 0.834425 23.6455C2.05542 28.6745 4.29477 33.3997 7.41408 37.529C10.5334 41.6584 14.4664 45.1042 18.97 47.6536C24.9348 51.1653 31.7227 53.0361 38.6443 53.076C41.0753 53.0739 43.4996 52.8223 45.8791 52.325C47.2812 60.0589 49.3783 73.1691 51.1305 90.5189C49.2395 88.1966 47.1422 86.0503 44.8641 84.1062C34.8372 75.5662 22.0774 71.4832 9.84553 72.9022C8.71523 73.0333 7.67657 73.5877 6.93872 74.454C6.20086 75.3202 5.81861 76.4338 5.86892 77.5706C6.41292 89.869 12.4754 101.82 22.5018 110.361C30.8942 117.642 41.5974 121.71 52.7073 121.841C52.9665 121.841 53.2253 121.824 53.4844 121.819C54.0158 132.277 54.3566 143.855 54.363 156.368C52.5269 153.59 50.4155 151.005 48.0608 148.65C38.7483 139.337 26.3562 134.257 14.0481 134.688C12.911 134.728 11.8315 135.198 11.0269 136.003C10.2223 136.807 9.75237 137.887 9.71173 139.024C9.27173 151.325 14.3611 163.723 23.6746 173.037C31.6587 181.175 42.338 186.12 53.7087 186.944C53.3305 195.677 52.7619 204.708 52.0027 214.036H26.5151C25.3834 214.036 24.2932 214.462 23.4618 215.23C22.6304 215.998 22.119 217.051 22.0293 218.179L19.8242 245.912C17.1794 278.565 27.1627 310.988 47.7163 336.497L60.3677 352.247C60.7895 352.772 61.3236 353.195 61.9308 353.486C62.538 353.777 63.2027 353.928 63.876 353.928H172.124C172.797 353.928 173.462 353.777 174.069 353.486C174.676 353.195 175.211 352.772 175.632 352.247L188.284 336.497C208.837 310.988 218.821 278.565 216.176 245.912L213.971 218.18C213.881 217.052 213.37 215.999 212.538 215.231C211.707 214.463 210.617 214.036 209.485 214.036H183.996C183.226 204.744 182.656 195.713 182.288 186.944C193.66 186.121 204.34 181.176 212.325 173.037C221.639 163.723 226.728 151.326 226.288 139.025C226.247 137.888 225.778 136.808 224.973 136.003C224.168 135.199 223.089 134.729 221.952 134.688C209.651 134.257 197.252 139.338 187.939 148.651C185.585 151.004 183.475 153.588 181.639 156.365C181.651 144.031 181.993 132.477 182.543 121.821C182.793 121.825 183.042 121.842 183.292 121.842C194.402 121.71 205.105 117.642 213.498 110.361C223.524 101.821 229.586 89.8695 230.13 77.5712C230.181 76.4344 229.798 75.3208 229.061 74.4546C228.323 73.5883 227.284 73.0339 226.154 72.9028C213.926 71.4819 201.162 75.5668 191.135 84.1069C188.878 86.0336 186.798 88.159 184.92 90.4576C186.672 73.0987 188.744 60.0356 190.13 52.3276C192.507 52.8234 194.928 53.0742 197.355 53.076ZM75.5337 155.014C81.6386 148.775 89.7042 144.826 98.3765 143.83C97.2879 152.475 93.3527 160.512 87.1915 166.673C81.0303 172.834 72.9936 176.769 64.3486 177.857C65.3454 169.185 69.2947 161.12 75.5337 155.014ZM72.7568 88.2576C78.345 81.5512 86.0697 76.971 94.6348 75.2855C94.2394 83.9897 90.958 92.3147 85.3081 98.9478C79.6582 105.581 71.9612 110.145 63.4307 111.92C63.7318 103.196 67.0248 94.8411 72.7568 88.2576ZM56.59 22.85C59.7444 17.3139 64.597 12.9403 70.43 10.3764C71.0125 16.7117 69.604 23.0709 66.4007 28.5676C63.1975 34.0644 58.3591 38.4249 52.56 41.0414C51.9152 34.7021 53.3282 28.3237 56.59 22.85ZM23.5017 39.8774C17.9658 36.7226 13.5924 31.8696 11.0285 26.0365C17.3638 25.4541 23.7229 26.8627 29.2196 30.0659C34.7163 33.2692 39.0767 38.1074 41.6931 43.9065C35.3539 44.5526 28.9753 43.1399 23.5017 39.8774ZM28.3381 103.509C21.6317 97.9212 17.0514 90.1964 15.3659 81.6313C24.0702 82.0266 32.3953 85.3079 39.0285 90.9578C45.6617 96.6077 50.2257 104.305 52.0007 112.835C43.2765 112.534 34.9217 109.241 28.3381 103.509ZM30.0393 166.673C23.8002 160.568 19.8509 152.502 18.854 143.83C27.499 144.918 35.5357 148.853 41.6969 155.015C47.8581 161.176 51.7932 169.212 52.8818 177.857C44.2097 176.861 36.1444 172.912 30.0393 166.673ZM181.267 330.861L169.967 344.929H66.0332L54.7332 330.861C36.5203 308.255 27.2061 279.768 28.5464 250.769H207.454C208.794 279.768 199.48 308.255 181.267 330.861ZM206.818 241.769H29.182L30.6714 223.036H56.13H56.1409H56.1461H179.854H179.859H179.87H205.329L206.818 241.769ZM196.972 90.9579C203.555 85.2255 211.91 81.9324 220.635 81.6313C218.86 90.1618 214.296 97.8589 207.663 103.509C201.029 109.159 192.704 112.44 184 112.835C185.685 104.27 190.266 96.5458 196.972 90.9579ZM206.781 30.0658C212.255 26.8042 218.633 25.3916 224.972 26.037C222.356 31.8361 217.995 36.6744 212.498 39.8775C207.002 43.0806 200.643 44.4889 194.307 43.9062C196.871 38.0731 201.245 33.2204 206.781 30.0658ZM169.599 28.5678C166.338 23.0939 164.925 16.7154 165.57 10.3763C171.369 12.9927 176.207 17.3532 179.411 22.85C182.614 28.3468 184.023 34.7059 183.44 41.0413C177.607 38.4776 172.754 34.104 169.599 28.5678ZM150.692 98.9478C144.96 92.3642 141.667 84.0093 141.365 75.2852C149.896 77.06 157.593 81.6239 163.243 88.2571C168.893 94.8904 172.174 103.216 172.569 111.92C164.004 110.234 156.28 105.654 150.692 98.9478ZM148.809 166.672C142.57 160.567 138.621 152.502 137.624 143.83C146.268 144.918 154.305 148.854 160.466 155.015C166.628 161.176 170.563 169.212 171.651 177.857C162.979 176.861 154.914 172.911 148.809 166.672ZM194.303 155.014C200.408 148.775 208.474 144.826 217.146 143.83C216.057 152.475 212.122 160.512 205.961 166.673C199.8 172.834 191.763 176.769 183.118 177.857C184.115 169.185 188.064 161.119 194.303 155.014Z" fill="#121212" stroke="#F8F8F8" stroke-width="4" mask="url(#path-1-inside-1_1_957)"/>
</svg>
