<svg width="70" height="90" viewBox="0 0 70 90" fill="none" xmlns="http://www.w3.org/2000/svg">
<path d="M43.5264 37.5483L43.88 37.1947L63.5497 56.8647C63.55 56.865 63.5502 56.8652 63.5504 56.8655C65.4102 58.7156 66.8252 60.9642 67.6883 63.4414C68.5514 65.9186 68.8402 68.5595 68.5328 71.1646C68.4375 72.0214 68.1009 72.8335 67.5621 73.5063C67.0231 74.1794 66.3039 74.6855 65.4884 74.9657C65.488 74.9659 65.4875 74.966 65.487 74.9662L65.3247 74.4933C64.8891 74.6457 64.431 74.7237 63.9695 74.7242L43.5264 37.5483ZM43.5264 37.5483L43.88 37.1947L38.3754 31.6902V11.9438V11.9432C38.3722 9.10984 37.2453 6.39342 35.2418 4.3899C33.2383 2.38638 30.5219 1.25936 27.6886 1.2561H27.688H25.4893C25.0629 1.2561 24.6541 1.42546 24.3526 1.7269L24.3526 1.72691C24.0512 2.02836 23.8818 2.43721 23.8818 2.86353V26.9284L8.30389 11.3503C8.30387 11.3503 8.30385 11.3503 8.30383 11.3503C8.15458 11.201 7.9774 11.0825 7.78238 11.0017C7.58734 10.9209 7.37829 10.8793 7.16717 10.8793C6.95604 10.8793 6.74699 10.9209 6.55195 11.0017C6.35694 11.0825 6.17975 11.201 6.03051 11.3502C6.03049 11.3503 6.03046 11.3503 6.03044 11.3503L4.47583 12.9049L4.47543 12.9053C2.47426 14.911 1.3504 17.6287 1.3504 20.462C1.3504 23.2953 2.47426 26.0129 4.47543 28.0187L4.47583 28.0191L22.3449 45.8882C22.345 45.8882 22.345 45.8882 22.345 45.8883C22.8846 46.4281 23.4799 46.9088 24.1208 47.3224L24.1208 74.1121C24.1208 74.1124 24.1208 74.1126 24.1208 74.1129C24.1141 76.7362 24.7037 79.3267 25.8451 81.6887C26.9865 84.0508 28.6498 86.1225 30.7094 87.7473C31.3841 88.2823 32.1959 88.6162 33.0517 88.7109C33.9077 88.8056 34.773 88.6571 35.5485 88.2824C36.3239 87.9077 36.978 87.322 37.4358 86.5924C37.8935 85.8629 38.1363 85.0191 38.1363 84.1579V51.272L60.7413 73.877C60.7417 73.8774 60.7422 73.8779 60.7426 73.8783M43.5264 37.5483L60.7426 73.8783M60.7426 73.8783L60.7429 73.8785L61.0964 73.525L60.7426 73.8783ZM23.8997 31.4927L23.8997 31.4927L7.16713 14.7602L6.74955 15.1777C5.35008 16.5803 4.56413 18.4808 4.56413 20.4621C4.56413 22.4434 5.35 24.3438 6.74934 25.7463C6.74941 25.7464 6.74948 25.7465 6.74955 25.7465L24.6183 43.6153C26.0197 45.0166 27.9204 45.8038 29.9022 45.8038C31.8841 45.8038 33.7847 45.0166 35.1861 43.6153L40.47 38.3313L32.8601 30.7216L23.8997 31.4927ZM23.8997 31.4927C24.2011 31.7941 24.6099 31.9634 25.0362 31.9635C25.4624 31.9635 25.8713 31.7943 26.1728 31.493L26.1729 31.4929M23.8997 31.4927L26.1729 31.4929M26.1729 31.4929L26.9444 30.7215L26.9681 30.6978M26.1729 31.4929L26.9681 30.6978M26.9681 30.6978C27.7509 29.9294 28.8043 29.4984 29.9021 29.4984C31.011 29.4984 32.0746 29.9382 32.8597 30.7212L26.9681 30.6978ZM35.1606 11.9443V28.4755L35.1331 28.448L35.1326 28.4475C34.0014 27.3193 32.5358 26.587 30.9544 26.3598C29.6442 26.1716 28.3126 26.3385 27.0966 26.8359V4.47095L27.6874 4.47095C27.6875 4.47095 27.6876 4.47095 27.6876 4.47095C29.6689 4.47327 31.5684 5.26138 32.9693 6.66237C34.3703 8.06342 35.1584 9.96298 35.1606 11.9443ZM32.7066 85.2282L32.7056 85.2275C31.027 83.9032 29.6712 82.2147 28.7409 80.2895C27.8107 78.3643 27.3301 76.2529 27.3357 74.1147V74.1134V48.7081C29.7907 49.3122 32.3875 49.0306 34.6631 47.9021H34.7665L34.9215 48.0571L34.9214 84.1579C34.9214 84.4147 34.849 84.6663 34.7125 84.8838C34.576 85.1014 34.381 85.276 34.1498 85.3878C33.9185 85.4995 33.6605 85.5438 33.4052 85.5156C33.15 85.4874 32.9078 85.3878 32.7066 85.2282ZM65.339 70.7948L65.3388 70.7961C65.3094 71.0512 65.2086 71.2929 65.0481 71.4934C64.8876 71.6938 64.6739 71.845 64.4313 71.9294L64.5958 72.4016L64.4313 71.9295C64.1888 72.0139 63.9274 72.0284 63.6771 71.971L63.5655 72.4584L63.6771 71.971C63.4268 71.9137 63.1977 71.787 63.0161 71.6054L62.6625 71.9589L63.0161 71.6054L37.3794 45.9686L42.7435 40.6046L61.2776 59.1387L61.2785 59.1396C62.7944 60.6476 63.9476 62.4804 64.6511 64.4996C65.3545 66.5187 65.5897 68.6714 65.339 70.7948Z" fill="#285A43" stroke="#285A43"/>
<path d="M34.5835 38.3309C34.5834 37.248 34.2079 36.1987 33.5209 35.3617C32.8338 34.5245 31.8777 33.9514 30.8154 33.7401C29.7532 33.5288 28.6505 33.6923 27.6953 34.2029C26.7401 34.7135 25.9915 35.5394 25.5771 36.5401C25.1626 37.5407 25.108 38.6541 25.4224 39.6905C25.7368 40.727 26.4009 41.6223 27.3014 42.224C28.202 42.8257 29.2833 43.0965 30.3612 42.9903C31.4386 42.8842 32.4459 42.4079 33.2116 41.6425C33.6479 41.2086 33.9938 40.6923 34.2293 40.1238C34.4647 39.5554 34.5851 38.946 34.5835 38.3309ZM34.5835 38.3309C34.5835 38.3306 34.5835 38.3304 34.5835 38.3302L34.0835 38.3316L34.5835 38.3316C34.5835 38.3313 34.5835 38.3311 34.5835 38.3309ZM30.94 39.3675L30.9391 39.3684C30.6991 39.6083 30.3834 39.7576 30.0458 39.7909C29.7081 39.8241 29.3693 39.7392 29.0872 39.5507C28.8051 39.3622 28.5971 39.0817 28.4986 38.757C28.4002 38.4323 28.4173 38.0835 28.5472 37.77C28.6771 37.4565 28.9116 37.1978 29.2109 37.0379C29.5101 36.8779 29.8556 36.8267 30.1883 36.893C30.5211 36.9592 30.8206 37.1388 31.0359 37.4011C31.2511 37.6634 31.3687 37.9922 31.3687 38.3315L31.3687 38.3329C31.3692 38.5251 31.3316 38.7155 31.258 38.8931L31.7199 39.0845L31.258 38.8931C31.1844 39.0707 31.0764 39.2318 30.94 39.3675Z" fill="#285A43" stroke="#285A43"/>
</svg>
