<svg width="126" height="126" viewBox="0 0 126 126" fill="none" xmlns="http://www.w3.org/2000/svg">
<path d="M54.5421 91.9768C58.4565 89.4667 62.949 88.0085 67.5858 87.7388V80.5986C63.9164 80.4404 60.4337 78.9055 57.8386 76.2895C55.1269 73.556 53.6032 69.863 53.5986 66.0126L53.5986 66.012L53.5986 65.0197C53.5986 64.5934 53.7679 64.1845 54.0694 63.8831C54.3708 63.5816 54.7797 63.4123 55.206 63.4123H56.1983H56.1988C59.0706 63.4152 61.878 64.2637 64.2707 65.8518C66.3605 67.2388 68.0532 69.1363 69.1932 71.3569C70.3333 69.1364 72.026 67.2388 74.1157 65.8518C76.5085 64.2637 79.3158 63.4152 82.1876 63.4123L82.1881 63.4123L83.1805 63.4123C83.6068 63.4123 84.0156 63.5816 84.3171 63.8831C84.6185 64.1845 84.7879 64.5934 84.7879 65.0197V66.012V66.0126C84.7833 69.863 83.2596 73.556 80.5479 76.2895C77.9527 78.9055 74.47 80.4404 70.8006 80.5986M54.5421 91.9768C54.5428 91.9763 54.5435 91.9759 54.5442 91.9755L54.81 92.3989L54.5401 91.9781C54.5407 91.9776 54.5414 91.9772 54.5421 91.9768ZM54.5421 91.9768C54.363 92.0896 54.208 92.2366 54.0858 92.4095C53.9633 92.5831 53.8763 92.7793 53.83 92.9866C53.7837 93.194 53.779 93.4085 53.8161 93.6177C53.8533 93.8269 53.9315 94.0267 54.0463 94.2055C54.1611 94.3843 54.3103 94.5385 54.4851 94.6593C54.6599 94.7801 54.8569 94.865 55.0648 94.9092C55.2726 94.9533 55.4872 94.9558 55.696 94.9166C55.9037 94.8775 56.1017 94.7978 56.2785 94.6822M56.2785 94.6822C60.1341 92.2147 64.6158 90.9034 69.1933 90.9034C73.7708 90.9034 78.2525 92.2147 82.108 94.6822M56.2785 94.6822C56.2778 94.6826 56.2771 94.6831 56.2764 94.6835L56.0068 94.2624M56.2785 94.6822C56.2795 94.6816 56.2804 94.681 56.2813 94.6803L56.0068 94.2624M82.108 94.6822C82.2849 94.7978 82.4829 94.8775 82.6906 94.9166C82.8994 94.9558 83.1139 94.9533 83.3218 94.9092C83.5296 94.865 83.7267 94.7801 83.9015 94.6593C84.0763 94.5385 84.2254 94.3843 84.3402 94.2055C84.4551 94.0267 84.5333 93.8269 84.5704 93.6177L84.0781 93.5304M82.108 94.6822C82.1071 94.6816 82.1061 94.6809 82.1052 94.6803L82.3797 94.2624M82.108 94.6822C82.1087 94.6826 82.1094 94.6831 82.1101 94.6835L82.3797 94.2624M84.0781 93.5304L84.5704 93.6177C84.6075 93.4085 84.6028 93.194 84.5565 92.9866C84.5102 92.7793 84.4233 92.5831 84.3007 92.4095C84.1787 92.2367 84.0237 92.0897 83.8447 91.9769M84.0781 93.5304C84.1037 93.3862 84.1004 93.2384 84.0685 93.0956C84.0366 92.9527 83.9767 92.8176 83.8923 92.698C83.8078 92.5784 83.7005 92.4768 83.5765 92.3989M84.0781 93.5304C84.0525 93.6745 83.9986 93.8121 83.9195 93.9353C83.8404 94.0585 83.7377 94.1647 83.6172 94.2479C83.4968 94.3312 83.3611 94.3897 83.2179 94.4201C83.0747 94.4505 82.9269 94.4522 82.783 94.4252C82.6391 94.3981 82.5021 94.3428 82.3797 94.2624M83.8447 91.9769C79.9303 89.4667 75.4376 88.0084 70.8006 87.7388M83.8447 91.9769C83.8453 91.9773 83.8459 91.9777 83.8465 91.9781L83.5765 92.3989M83.8447 91.9769C83.844 91.9765 83.8432 91.976 83.8424 91.9755L83.5765 92.3989M70.8006 87.7388V80.5986M70.8006 87.7388V88.2148H70.3006M70.8006 87.7388C70.6409 87.7295 70.4809 87.7216 70.3208 87.7152L70.3006 88.2148M70.8006 80.5986C70.6359 80.6057 70.4707 80.61 70.3052 80.6115L70.3006 80.1115M70.8006 80.5986V80.1115H70.3006M70.3006 80.1115V88.2148M70.3006 80.1115C74.0191 80.0773 77.574 78.5773 80.1929 75.9374C82.8119 73.2974 84.2834 69.7307 84.2879 66.012V65.0197C84.2879 64.726 84.1712 64.4443 83.9635 64.2366C83.7558 64.0289 83.4742 63.9123 83.1805 63.9123H82.1881L70.3006 88.2148M70.3006 88.2148C75.0191 88.4052 79.6016 89.8495 83.5765 92.3989M70.3006 88.2148L83.5765 92.3989M83.5765 92.3989L54.318 93.0956C54.2861 93.2384 54.2829 93.3862 54.3084 93.5304C54.334 93.6745 54.3879 93.8121 54.467 93.9353C54.5461 94.0585 54.6489 94.1647 54.7693 94.2479C54.8898 94.3312 55.0255 94.3897 55.1687 94.4201C55.3119 94.4505 55.4597 94.4522 55.6035 94.4252C55.7474 94.3981 55.8845 94.3428 56.0068 94.2624M82.3797 94.2624C78.4432 91.7426 73.8672 90.4034 69.1933 90.4034C64.5194 90.4034 59.9433 91.7426 56.0068 94.2624M64.2469 69.9662C66.2311 71.9505 67.4095 74.592 67.5677 77.3815C64.7782 77.2233 62.1367 76.045 60.1524 74.0607C58.1682 72.0765 56.9898 69.435 56.8316 66.6455C59.6211 66.8037 62.2626 67.982 64.2469 69.9662ZM74.1396 69.9662C76.1239 67.982 78.7654 66.8037 81.5549 66.6455C81.3967 69.435 80.2183 72.0765 78.2341 74.0607C76.2498 76.045 73.6083 77.2233 70.8188 77.3815C70.977 74.592 72.1554 71.9505 74.1396 69.9662Z" fill="#285A43" stroke="#285A43"/>
<path d="M68.2339 32.965L68.5323 33.3662L68.2339 32.965L43.1956 51.5884V28.9478C43.1956 27.2814 42.5336 25.6832 41.3552 24.5048C40.1769 23.3264 38.5786 22.6644 36.9122 22.6644C35.2457 22.6644 33.6475 23.3264 32.4691 24.5048C31.2907 25.6832 30.6287 27.2814 30.6287 28.9478V63.2194C29.0277 64.2781 27.7223 65.7293 26.8383 67.4365C25.9115 69.2263 25.4819 71.232 25.5941 73.2444L25.5941 73.2446C25.7531 76.0794 26.966 78.7524 28.9947 80.7389C31.0234 82.7253 33.7213 83.8817 36.5589 83.9811L36.5616 83.9812C36.6797 83.9847 36.7976 83.9866 36.9162 83.9866C37.2665 83.9866 37.6166 83.9705 37.9653 83.9385V101.728C37.9653 102.154 38.1346 102.563 38.4361 102.865C38.7376 103.166 39.1464 103.335 39.5727 103.335H98.8136C99.2399 103.335 99.6488 103.166 99.9503 102.865C100.252 102.563 100.421 102.154 100.421 101.728V56.2864C100.421 56.0357 100.362 55.7886 100.25 55.5646C100.137 55.3407 99.974 55.1461 99.7729 54.9966L70.1525 32.965L69.8541 33.3662L70.1525 32.965C69.8752 32.7588 69.5388 32.6474 69.1932 32.6474C68.8476 32.6474 68.5112 32.7588 68.2339 32.965ZM33.0098 65.5335L33.0103 65.5332C33.2626 65.3945 33.473 65.1907 33.6196 64.9428C33.7662 64.6951 33.8435 64.4124 33.8436 64.1245V28.9478C33.8436 28.134 34.1669 27.3535 34.7423 26.778C35.3178 26.2025 36.0983 25.8792 36.9122 25.8792C37.726 25.8792 38.5065 26.2025 39.082 26.778C39.6575 27.3535 39.9808 28.134 39.9808 28.9478V64.1245C39.9808 64.4124 40.0582 64.695 40.2047 64.9428C40.3513 65.1907 40.5618 65.3945 40.8141 65.5332L40.8146 65.5335C42.4143 66.4104 43.6721 67.8005 44.3851 69.4797C45.0981 71.1589 45.2248 73.0293 44.7447 74.7893C44.2647 76.5493 43.2058 78.0963 41.739 79.181C40.2721 80.2656 38.4827 80.8246 36.6593 80.7678C34.8792 80.7123 33.1667 80.0729 31.7858 78.9484C30.4048 77.8238 29.4319 76.2763 29.0169 74.5443C28.602 72.8123 28.7681 70.992 29.4896 69.3637C30.2112 67.7354 31.4481 66.3896 33.0098 65.5335ZM97.2062 100.121H41.1802V83.1562C43.0261 82.4054 44.6435 81.1803 45.8672 79.6024C47.1624 77.9322 47.965 75.9332 48.1843 73.8311C48.4035 71.729 48.0308 69.6074 47.1082 67.7059C46.226 65.8877 44.8746 64.34 43.1957 63.2211V55.5951L69.1933 36.2582L97.2063 57.0941L97.2062 100.121Z" fill="#285A43" stroke="#285A43"/>
<path d="M35.5298 74.8053C35.9388 75.0787 36.4197 75.2246 36.9116 75.2247L35.5298 74.8053ZM35.5298 74.8053C35.1206 74.5319 34.8017 74.1433 34.6133 73.6886M35.5298 74.8053L34.6133 73.6886M34.6133 73.6886C34.425 73.2339 34.3758 72.7336 34.4718 72.2509M34.6133 73.6886L34.4718 72.2509M34.4718 72.2509C34.5678 71.7682 34.8048 71.3248 35.1528 70.9768M34.4718 72.2509L35.1528 70.9768M35.1528 70.9768C35.5008 70.6288 35.9442 70.3919 36.4269 70.2959M35.1528 70.9768L36.4269 70.2959M36.4269 70.2959C36.9096 70.1999 37.4099 70.2491 37.8646 70.4375M36.4269 70.2959L37.8646 70.4375M37.8646 70.4375C38.3193 70.6258 38.7079 70.9448 38.9813 71.354M37.8646 70.4375L38.9813 71.354M38.9813 71.354C39.2547 71.7631 39.4006 72.2442 39.4006 72.7363M38.9813 71.354L39.4006 72.7363M39.4006 72.7363C39.3998 73.396 39.1373 74.0285 38.6708 74.495C38.2042 74.9616 37.5716 75.224 36.9117 75.2247L39.4006 72.7363ZM32.2855 69.4038L32.6911 69.6962L32.2855 69.4039C31.4628 70.5452 31.091 71.9503 31.2416 73.3492C31.3922 74.748 32.0545 76.0418 33.1012 76.9819C34.148 77.922 35.5052 78.442 36.9122 78.442C38.3191 78.442 39.6764 77.922 40.7231 76.9819C41.7698 76.0418 42.4321 74.748 42.5827 73.3492C42.7333 71.9503 42.3615 70.5452 41.5389 69.4039C40.7956 68.3727 39.7318 67.6227 38.5196 67.2666V31.4492C38.5196 31.0228 38.3502 30.614 38.0488 30.3125C37.7473 30.0111 37.3385 29.8417 36.9122 29.8417C36.4859 29.8417 36.077 30.0111 35.7755 30.3125L36.1242 30.6612L35.7755 30.3125C35.4741 30.614 35.3047 31.0228 35.3047 31.4492V67.2666C34.0926 67.6227 33.0287 68.3727 32.2855 69.4038Z" fill="#285A43" stroke="#285A43"/>
<path d="M66.8182 59.3863H66.8184L67.3026 50.8668H67.8026C67.8026 50.8659 67.8026 50.8651 67.8026 50.8642C67.8019 50.4388 67.6326 50.031 67.3318 49.7302C67.0303 49.4287 66.6215 49.2594 66.1952 49.2594C65.7689 49.2594 65.36 49.4287 65.0585 49.7302C64.7571 50.0316 64.5877 50.4405 64.5877 50.8668H64.5876L64.5879 50.879C64.5919 51.041 64.5331 51.1982 64.4239 51.3178L64.4085 51.3346L64.3947 51.3528C63.8813 52.0297 63.6034 52.856 63.6034 53.7056C63.6033 54.5552 63.8811 55.3815 64.3945 56.0585L64.4045 56.0717L64.4153 56.0842C64.5265 56.2123 64.5877 56.3762 64.5877 56.5458C64.5877 56.7154 64.5265 56.8793 64.4153 57.0073L64.4061 57.0179L64.3975 57.029C63.8749 57.704 63.5951 58.5354 63.6034 59.3889C63.6041 59.8143 63.7733 60.2221 64.0742 60.5229C64.3756 60.8244 64.7845 60.9937 65.2108 60.9937C65.6371 60.9937 66.046 60.8244 66.3474 60.5229C66.6489 60.2215 66.8182 59.8126 66.8182 59.3863Z" fill="#285A43" stroke="#285A43"/>
<path d="M73.7987 59.3863H73.7989L74.2831 50.8668H74.7831C74.7831 50.8659 74.7831 50.8651 74.7831 50.8642C74.7824 50.4388 74.6132 50.031 74.3123 49.7302C74.0109 49.4287 73.602 49.2594 73.1757 49.2594C72.7494 49.2594 72.3405 49.4287 72.0391 49.7302C71.7376 50.0316 71.5683 50.4405 71.5683 50.8668H71.5681L71.5684 50.879C71.5724 51.041 71.5136 51.1982 71.4044 51.3178L71.389 51.3346L71.3752 51.3528C70.8618 52.0297 70.5839 52.856 70.5839 53.7056C70.5838 54.5552 70.8616 55.3815 71.3749 56.0585L71.385 56.0717L71.3958 56.0843C71.507 56.2123 71.5683 56.3762 71.5683 56.5458C71.5683 56.7154 71.507 56.8793 71.3958 57.0073L71.3866 57.0179L71.378 57.029C70.8554 57.704 70.5756 58.5354 70.5839 59.3889C70.5846 59.8143 70.7538 60.2221 71.0547 60.5229C71.3561 60.8244 71.765 60.9937 72.1913 60.9937C72.6176 60.9937 73.0265 60.8244 73.3279 60.5229C73.6294 60.2215 73.7987 59.8126 73.7987 59.3863Z" fill="#285A43" stroke="#285A43"/>
</svg>
